<svg xmlns="http://www.w3.org/2000/svg" width="1253" height="428" viewBox="0 0 1253 428" font-family="ui-sans-serif,Helvetica,Arial,sans-serif">
<rect width="1253" height="428" rx="10" fill="#f4f6f8"/>
<text x="26" y="30" font-size="15" font-weight="600" fill="#1b1f24">Alto keyboard as the Dorado presents it — four active-low words at KBDAD = 177034B</text>
<text x="26" y="50" font-size="12" fill="#6b7580">Small grey label is word.bit in Xerox numbering (bit 0 = MSB, depressed = 0). Blue is the host key where it differs.</text>
<rect x="26" y="70" width="62" height="52" rx="7" fill="#ffffff" stroke="#aab2bb"/>
<text x="57" y="92" font-size="11" font-weight="600" text-anchor="middle" fill="#1b1f24">ESC</text>
<text x="57" y="107" font-size="10" text-anchor="middle" fill="#6b7580">2.1</text>
<rect x="93" y="70" width="62" height="52" rx="7" fill="#ffffff" stroke="#aab2bb"/>
<text x="124" y="92" font-size="15" font-weight="600" text-anchor="middle" fill="#1b1f24">1</text>
<text x="124" y="107" font-size="10" text-anchor="middle" fill="#6b7580">2.0</text>
<rect x="160" y="70" width="62" height="52" rx="7" fill="#ffffff" stroke="#aab2bb"/>
<text x="191" y="92" font-size="15" font-weight="600" text-anchor="middle" fill="#1b1f24">2</text>
<text x="191" y="107" font-size="10" text-anchor="middle" fill="#6b7580">1.1</text>
<rect x="227" y="70" width="62" height="52" rx="7" fill="#ffffff" stroke="#aab2bb"/>
<text x="258" y="92" font-size="15" font-weight="600" text-anchor="middle" fill="#1b1f24">3</text>
<text x="258" y="107" font-size="10" text-anchor="middle" fill="#6b7580">1.0</text>
<rect x="294" y="70" width="62" height="52" rx="7" fill="#ffffff" stroke="#aab2bb"/>
<text x="325" y="92" font-size="15" font-weight="600" text-anchor="middle" fill="#1b1f24">4</text>
<text x="325" y="107" font-size="10" text-anchor="middle" fill="#6b7580">0.1</text>
<rect x="361" y="70" width="62" height="52" rx="7" fill="#ffffff" stroke="#aab2bb"/>
<text x="392" y="92" font-size="15" font-weight="600" text-anchor="middle" fill="#1b1f24">5</text>
<text x="392" y="107" font-size="10" text-anchor="middle" fill="#6b7580">0.0</text>
<rect x="428" y="70" width="62" height="52" rx="7" fill="#ffffff" stroke="#aab2bb"/>
<text x="459" y="92" font-size="15" font-weight="600" text-anchor="middle" fill="#1b1f24">6</text>
<text x="459" y="107" font-size="10" text-anchor="middle" fill="#6b7580">0.2</text>
<rect x="495" y="70" width="62" height="52" rx="7" fill="#ffffff" stroke="#aab2bb"/>
<text x="526" y="92" font-size="15" font-weight="600" text-anchor="middle" fill="#1b1f24">7</text>
<text x="526" y="107" font-size="10" text-anchor="middle" fill="#6b7580">0.4</text>
<rect x="562" y="70" width="62" height="52" rx="7" fill="#ffffff" stroke="#aab2bb"/>
<text x="593" y="92" font-size="15" font-weight="600" text-anchor="middle" fill="#1b1f24">8</text>
<text x="593" y="107" font-size="10" text-anchor="middle" fill="#6b7580">3.5</text>
<rect x="629" y="70" width="62" height="52" rx="7" fill="#ffffff" stroke="#aab2bb"/>
<text x="660" y="92" font-size="15" font-weight="600" text-anchor="middle" fill="#1b1f24">9</text>
<text x="660" y="107" font-size="10" text-anchor="middle" fill="#6b7580">1.6</text>
<rect x="696" y="70" width="62" height="52" rx="7" fill="#ffffff" stroke="#aab2bb"/>
<text x="727" y="92" font-size="15" font-weight="600" text-anchor="middle" fill="#1b1f24">0</text>
<text x="727" y="107" font-size="10" text-anchor="middle" fill="#6b7580">0.8</text>
<rect x="763" y="70" width="62" height="52" rx="7" fill="#ffffff" stroke="#aab2bb"/>
<text x="794" y="92" font-size="15" font-weight="600" text-anchor="middle" fill="#1b1f24">-</text>
<text x="794" y="107" font-size="10" text-anchor="middle" fill="#6b7580">0.10</text>
<rect x="830" y="70" width="62" height="52" rx="7" fill="#ffffff" stroke="#aab2bb"/>
<text x="861" y="92" font-size="15" font-weight="600" text-anchor="middle" fill="#1b1f24">=</text>
<text x="861" y="107" font-size="10" text-anchor="middle" fill="#6b7580">3.11</text>
<rect x="897" y="70" width="62" height="52" rx="7" fill="#ffffff" stroke="#aab2bb"/>
<text x="928" y="92" font-size="15" font-weight="600" text-anchor="middle" fill="#1b1f24">←</text>
<text x="928" y="107" font-size="10" text-anchor="middle" fill="#6b7580">2.13</text>
<text x="928" y="119" font-size="10" font-weight="600" text-anchor="middle" fill="#1a5fb4">Backquote</text>
<rect x="964" y="70" width="62" height="52" rx="7" fill="#ffffff" stroke="#aab2bb"/>
<text x="995" y="92" font-size="11" font-weight="600" text-anchor="middle" fill="#1b1f24">DEL</text>
<text x="995" y="107" font-size="10" text-anchor="middle" fill="#6b7580">2.14</text>
<rect x="1031" y="70" width="62" height="52" rx="7" fill="#ffffff" stroke="#aab2bb"/>
<text x="1062" y="92" font-size="15" font-weight="600" text-anchor="middle" fill="#1b1f24">LF</text>
<text x="1062" y="107" font-size="10" text-anchor="middle" fill="#6b7580">0.14</text>
<text x="1062" y="119" font-size="10" font-weight="600" text-anchor="middle" fill="#1a5fb4">F6</text>
<rect x="1098" y="70" width="62" height="52" rx="7" fill="#ffffff" stroke="#aab2bb"/>
<text x="1129" y="92" font-size="15" font-weight="600" text-anchor="middle" fill="#1b1f24">BS</text>
<text x="1129" y="107" font-size="10" text-anchor="middle" fill="#6b7580">0.15</text>
<rect x="1165" y="70" width="62" height="52" rx="7" fill="#ffffff" stroke="#aab2bb"/>
<text x="1196" y="92" font-size="11" font-weight="600" text-anchor="middle" fill="#1b1f24">Look</text>
<text x="1196" y="107" font-size="10" text-anchor="middle" fill="#6b7580">1.15</text>
<text x="1196" y="119" font-size="10" font-weight="600" text-anchor="middle" fill="#1a5fb4">F2</text>
<rect x="26" y="132" width="95" height="52" rx="7" fill="#ffffff" stroke="#aab2bb"/>
<text x="73" y="154" font-size="11" font-weight="600" text-anchor="middle" fill="#1b1f24">TAB</text>
<text x="73" y="169" font-size="10" text-anchor="middle" fill="#6b7580">2.2</text>
<rect x="126" y="132" width="62" height="52" rx="7" fill="#ffffff" stroke="#aab2bb"/>
<text x="157" y="154" font-size="15" font-weight="600" text-anchor="middle" fill="#1b1f24">Q</text>
<text x="157" y="169" font-size="10" text-anchor="middle" fill="#6b7580">1.3</text>
<rect x="193" y="132" width="62" height="52" rx="7" fill="#ffffff" stroke="#aab2bb"/>
<text x="224" y="154" font-size="15" font-weight="600" text-anchor="middle" fill="#1b1f24">W</text>
<text x="224" y="169" font-size="10" text-anchor="middle" fill="#6b7580">1.2</text>
<rect x="260" y="132" width="62" height="52" rx="7" fill="#ffffff" stroke="#aab2bb"/>
<text x="291" y="154" font-size="15" font-weight="600" text-anchor="middle" fill="#1b1f24">E</text>
<text x="291" y="169" font-size="10" text-anchor="middle" fill="#6b7580">0.3</text>
<rect x="327" y="132" width="62" height="52" rx="7" fill="#ffffff" stroke="#aab2bb"/>
<text x="358" y="154" font-size="15" font-weight="600" text-anchor="middle" fill="#1b1f24">R</text>
<text x="358" y="169" font-size="10" text-anchor="middle" fill="#6b7580">3.0</text>
<rect x="394" y="132" width="62" height="52" rx="7" fill="#ffffff" stroke="#aab2bb"/>
<text x="425" y="154" font-size="15" font-weight="600" text-anchor="middle" fill="#1b1f24">T</text>
<text x="425" y="169" font-size="10" text-anchor="middle" fill="#6b7580">3.1</text>
<rect x="461" y="132" width="62" height="52" rx="7" fill="#ffffff" stroke="#aab2bb"/>
<text x="492" y="154" font-size="15" font-weight="600" text-anchor="middle" fill="#1b1f24">Y</text>
<text x="492" y="169" font-size="10" text-anchor="middle" fill="#6b7580">3.3</text>
<rect x="528" y="132" width="62" height="52" rx="7" fill="#ffffff" stroke="#aab2bb"/>
<text x="559" y="154" font-size="15" font-weight="600" text-anchor="middle" fill="#1b1f24">U</text>
<text x="559" y="169" font-size="10" text-anchor="middle" fill="#6b7580">0.6</text>
<rect x="595" y="132" width="62" height="52" rx="7" fill="#ffffff" stroke="#aab2bb"/>
<text x="626" y="154" font-size="15" font-weight="600" text-anchor="middle" fill="#1b1f24">I</text>
<text x="626" y="169" font-size="10" text-anchor="middle" fill="#6b7580">1.7</text>
<rect x="662" y="132" width="62" height="52" rx="7" fill="#ffffff" stroke="#aab2bb"/>
<text x="693" y="154" font-size="15" font-weight="600" text-anchor="middle" fill="#1b1f24">O</text>
<text x="693" y="169" font-size="10" text-anchor="middle" fill="#6b7580">1.9</text>
<rect x="729" y="132" width="62" height="52" rx="7" fill="#ffffff" stroke="#aab2bb"/>
<text x="760" y="154" font-size="15" font-weight="600" text-anchor="middle" fill="#1b1f24">P</text>
<text x="760" y="169" font-size="10" text-anchor="middle" fill="#6b7580">0.11</text>
<rect x="796" y="132" width="62" height="52" rx="7" fill="#ffffff" stroke="#aab2bb"/>
<text x="827" y="154" font-size="15" font-weight="600" text-anchor="middle" fill="#1b1f24">[</text>
<text x="827" y="169" font-size="10" text-anchor="middle" fill="#6b7580">3.10</text>
<rect x="863" y="132" width="62" height="52" rx="7" fill="#ffffff" stroke="#aab2bb"/>
<text x="894" y="154" font-size="15" font-weight="600" text-anchor="middle" fill="#1b1f24">]</text>
<text x="894" y="169" font-size="10" text-anchor="middle" fill="#6b7580">1.13</text>
<rect x="930" y="132" width="62" height="52" rx="7" fill="#ffffff" stroke="#aab2bb"/>
<text x="961" y="154" font-size="15" font-weight="600" text-anchor="middle" fill="#1b1f24">\</text>
<text x="961" y="169" font-size="10" text-anchor="middle" fill="#6b7580">0.13</text>
<rect x="997" y="132" width="95" height="52" rx="7" fill="#ffffff" stroke="#aab2bb"/>
<text x="1044" y="154" font-size="11" font-weight="600" text-anchor="middle" fill="#1b1f24">RETURN</text>
<text x="1044" y="169" font-size="10" text-anchor="middle" fill="#6b7580">2.12</text>
<rect x="1097" y="132" width="62" height="52" rx="7" fill="#ffffff" stroke="#aab2bb"/>
<text x="1128" y="154" font-size="11" font-weight="600" text-anchor="middle" fill="#1b1f24">Next</text>
<text x="1128" y="169" font-size="10" text-anchor="middle" fill="#6b7580">1.14</text>
<text x="1128" y="181" font-size="10" font-weight="600" text-anchor="middle" fill="#1a5fb4">F3</text>
<rect x="26" y="194" width="129" height="52" rx="7" fill="#ffffff" stroke="#aab2bb"/>
<text x="90" y="216" font-size="11" font-weight="600" text-anchor="middle" fill="#1b1f24">CTRL</text>
<text x="90" y="231" font-size="10" text-anchor="middle" fill="#6b7580">2.4</text>
<rect x="160" y="194" width="62" height="52" rx="7" fill="#ffffff" stroke="#aab2bb"/>
<text x="191" y="216" font-size="15" font-weight="600" text-anchor="middle" fill="#1b1f24">A</text>
<text x="191" y="231" font-size="10" text-anchor="middle" fill="#6b7580">1.5</text>
<rect x="227" y="194" width="62" height="52" rx="7" fill="#ffffff" stroke="#aab2bb"/>
<text x="258" y="216" font-size="15" font-weight="600" text-anchor="middle" fill="#1b1f24">S</text>
<text x="258" y="231" font-size="10" text-anchor="middle" fill="#6b7580">1.4</text>
<rect x="294" y="194" width="62" height="52" rx="7" fill="#ffffff" stroke="#aab2bb"/>
<text x="325" y="216" font-size="15" font-weight="600" text-anchor="middle" fill="#1b1f24">D</text>
<text x="325" y="231" font-size="10" text-anchor="middle" fill="#6b7580">0.5</text>
<rect x="361" y="194" width="62" height="52" rx="7" fill="#ffffff" stroke="#aab2bb"/>
<text x="392" y="216" font-size="15" font-weight="600" text-anchor="middle" fill="#1b1f24">F</text>
<text x="392" y="231" font-size="10" text-anchor="middle" fill="#6b7580">2.3</text>
<rect x="428" y="194" width="62" height="52" rx="7" fill="#ffffff" stroke="#aab2bb"/>
<text x="459" y="216" font-size="15" font-weight="600" text-anchor="middle" fill="#1b1f24">G</text>
<text x="459" y="231" font-size="10" text-anchor="middle" fill="#6b7580">3.2</text>
<rect x="495" y="194" width="62" height="52" rx="7" fill="#ffffff" stroke="#aab2bb"/>
<text x="526" y="216" font-size="15" font-weight="600" text-anchor="middle" fill="#1b1f24">H</text>
<text x="526" y="231" font-size="10" text-anchor="middle" fill="#6b7580">3.4</text>
<rect x="562" y="194" width="62" height="52" rx="7" fill="#ffffff" stroke="#aab2bb"/>
<text x="593" y="216" font-size="15" font-weight="600" text-anchor="middle" fill="#1b1f24">J</text>
<text x="593" y="231" font-size="10" text-anchor="middle" fill="#6b7580">2.6</text>
<rect x="629" y="194" width="62" height="52" rx="7" fill="#ffffff" stroke="#aab2bb"/>
<text x="660" y="216" font-size="15" font-weight="600" text-anchor="middle" fill="#1b1f24">K</text>
<text x="660" y="231" font-size="10" text-anchor="middle" fill="#6b7580">0.9</text>
<rect x="696" y="194" width="62" height="52" rx="7" fill="#ffffff" stroke="#aab2bb"/>
<text x="727" y="216" font-size="15" font-weight="600" text-anchor="middle" fill="#1b1f24">L</text>
<text x="727" y="231" font-size="10" text-anchor="middle" fill="#6b7580">1.10</text>
<rect x="763" y="194" width="62" height="52" rx="7" fill="#ffffff" stroke="#aab2bb"/>
<text x="794" y="216" font-size="15" font-weight="600" text-anchor="middle" fill="#1b1f24">;</text>
<text x="794" y="231" font-size="10" text-anchor="middle" fill="#6b7580">2.11</text>
<rect x="830" y="194" width="62" height="52" rx="7" fill="#ffffff" stroke="#aab2bb"/>
<text x="861" y="216" font-size="15" font-weight="600" text-anchor="middle" fill="#1b1f24">'</text>
<text x="861" y="231" font-size="10" text-anchor="middle" fill="#6b7580">1.12</text>
<rect x="26" y="256" width="162" height="52" rx="7" fill="#ffffff" stroke="#aab2bb"/>
<text x="107" y="278" font-size="11" font-weight="600" text-anchor="middle" fill="#1b1f24">SHIFT</text>
<text x="107" y="293" font-size="10" text-anchor="middle" fill="#6b7580">2.9</text>
<rect x="193" y="256" width="62" height="52" rx="7" fill="#ffffff" stroke="#aab2bb"/>
<text x="224" y="278" font-size="15" font-weight="600" text-anchor="middle" fill="#1b1f24">Z</text>
<text x="224" y="293" font-size="10" text-anchor="middle" fill="#6b7580">2.8</text>
<rect x="260" y="256" width="62" height="52" rx="7" fill="#ffffff" stroke="#aab2bb"/>
<text x="291" y="278" font-size="15" font-weight="600" text-anchor="middle" fill="#1b1f24">X</text>
<text x="291" y="293" font-size="10" text-anchor="middle" fill="#6b7580">1.8</text>
<rect x="327" y="256" width="62" height="52" rx="7" fill="#ffffff" stroke="#aab2bb"/>
<text x="358" y="278" font-size="15" font-weight="600" text-anchor="middle" fill="#1b1f24">C</text>
<text x="358" y="293" font-size="10" text-anchor="middle" fill="#6b7580">2.5</text>
<rect x="394" y="256" width="62" height="52" rx="7" fill="#ffffff" stroke="#aab2bb"/>
<text x="425" y="278" font-size="15" font-weight="600" text-anchor="middle" fill="#1b1f24">V</text>
<text x="425" y="293" font-size="10" text-anchor="middle" fill="#6b7580">0.7</text>
<rect x="461" y="256" width="62" height="52" rx="7" fill="#ffffff" stroke="#aab2bb"/>
<text x="492" y="278" font-size="15" font-weight="600" text-anchor="middle" fill="#1b1f24">B</text>
<text x="492" y="293" font-size="10" text-anchor="middle" fill="#6b7580">2.7</text>
<rect x="528" y="256" width="62" height="52" rx="7" fill="#ffffff" stroke="#aab2bb"/>
<text x="559" y="278" font-size="15" font-weight="600" text-anchor="middle" fill="#1b1f24">N</text>
<text x="559" y="293" font-size="10" text-anchor="middle" fill="#6b7580">3.6</text>
<rect x="595" y="256" width="62" height="52" rx="7" fill="#ffffff" stroke="#aab2bb"/>
<text x="626" y="278" font-size="15" font-weight="600" text-anchor="middle" fill="#1b1f24">M</text>
<text x="626" y="293" font-size="10" text-anchor="middle" fill="#6b7580">3.7</text>
<rect x="662" y="256" width="62" height="52" rx="7" fill="#ffffff" stroke="#aab2bb"/>
<text x="693" y="278" font-size="15" font-weight="600" text-anchor="middle" fill="#1b1f24">,</text>
<text x="693" y="293" font-size="10" text-anchor="middle" fill="#6b7580">1.11</text>
<rect x="729" y="256" width="62" height="52" rx="7" fill="#ffffff" stroke="#aab2bb"/>
<text x="760" y="278" font-size="15" font-weight="600" text-anchor="middle" fill="#1b1f24">.</text>
<text x="760" y="293" font-size="10" text-anchor="middle" fill="#6b7580">2.10</text>
<rect x="796" y="256" width="62" height="52" rx="7" fill="#ffffff" stroke="#aab2bb"/>
<text x="827" y="278" font-size="15" font-weight="600" text-anchor="middle" fill="#1b1f24">/</text>
<text x="827" y="293" font-size="10" text-anchor="middle" fill="#6b7580">0.12</text>
<rect x="863" y="256" width="129" height="52" rx="7" fill="#ffffff" stroke="#aab2bb"/>
<text x="927" y="278" font-size="11" font-weight="600" text-anchor="middle" fill="#1b1f24">SHIFT</text>
<text x="927" y="293" font-size="10" text-anchor="middle" fill="#6b7580">3.12</text>
<rect x="997" y="256" width="62" height="52" rx="7" fill="#ffffff" stroke="#aab2bb"/>
<text x="1028" y="278" font-size="11" font-weight="600" text-anchor="middle" fill="#1b1f24">Swat</text>
<text x="1028" y="293" font-size="10" text-anchor="middle" fill="#6b7580">3.13</text>
<text x="1028" y="305" font-size="10" font-weight="600" text-anchor="middle" fill="#1a5fb4">F4</text>
<rect x="193" y="318" width="129" height="52" rx="7" fill="#ffffff" stroke="#aab2bb"/>
<text x="257" y="340" font-size="11" font-weight="600" text-anchor="middle" fill="#1b1f24">LOCK</text>
<text x="257" y="355" font-size="10" text-anchor="middle" fill="#6b7580">3.8</text>
<text x="257" y="367" font-size="10" font-weight="600" text-anchor="middle" fill="#1a5fb4">CapsLock</text>
<rect x="327" y="318" width="665" height="52" rx="7" fill="#ffffff" stroke="#aab2bb"/>
<text x="659" y="340" font-size="11" font-weight="600" text-anchor="middle" fill="#1b1f24">SPACE</text>
<text x="659" y="355" font-size="10" text-anchor="middle" fill="#6b7580">3.9</text>
<text x="26" y="396" font-size="12" fill="#6b7580">Mouse (UTILIN, 177033B, also active low): bit 13 Red = left, bit 14 Blue = right, bit 15 Yellow = middle. 61 keys, which is the whole keyboard.</text>
</svg>
